# xmcd
#
# Track frame offsets:
#	150
#	16125
#	30300
#	46200
#	65400
#	81900
#	101625
#	119925
#	135300
#	152925
#	166050
#	184425
#	202500
#	216225
#	234450
#	252825
#
# Disc length: 3391 seconds
#
# Revision: 1
# Processed by: cddbd v1.5.2PL0 Copyright (c) Steve Scherf et al.
# Submitted via: audiograbber 1.83.01
#
DISCID=d20d3d10
DTITLE=Various Artist - karaoke kurrents 0106
DYEAR=1900
DGENRE=
TTITLE0=When the stars go blue - Tim Mcgraw
TTITLE1=Findin a Good Man - Danielle Peck
TTITLE2=Want to - sugarland
TTITLE3=tonight I wanna cry - Keith Urban
TTITLE4=Lost in this moment - big and rich
TTITLE5=Don't Blink - Kenny Chesney
TTITLE6=last dollar - Tim Mcgraw
TTITLE7=These are my people - Rodney Atkins
TTITLE8=you save me - Kenny Chesney
TTITLE9=Down in Mississippi - sugarland
TTITLE10=my wish - rascal flatts
TTITLE11=dont forget to remember me - Carrie underwood
TTITLE12=get drunk and be somebody - toby keith
TTITLE13=if your reading this - Tim Mcgraw
TTITLE14=ticks - brad paisley
TTITLE15=nothing
EXTD=
EXTT0=
EXTT1=
EXTT2=
EXTT3=
EXTT4=
EXTT5=
EXTT6=
EXTT7=
EXTT8=
EXTT9=
EXTT10=
EXTT11=
EXTT12=
EXTT13=
EXTT14=
EXTT15=
PLAYORDER=
